# xmcd CD database file generated by OrangeCD 5.2
#
# Track frame offsets:
#	150
#	12667
#	27190
#	37930
#	53200
#	68107
#	81312
#	93932
#	105942
#	117710
#	130237
#	143745
#	154940
#	167222
#	179860
#	191817
#	203905
#	216977
#	229007
#	238717
#	251017
#
# Disc length: 3487 seconds
#
# Revision: 2
# Processed by: cddbd v1.5.1PL0 Copyright (c) Steve Scherf et al.
# Submitted via: OrangeCD 5.2
#
DISCID=340d9d15
DTITLE=Big Joe Turner - Big Joe Turner Greatest Hits
DYEAR=1994
DGENRE=Blues
TTITLE0=The Chill Is On
TTITLE1=After My Laughter Came Tears
TTITLE2=Bump Miss Suzie
TTITLE3=Chains Of Love
TTITLE4=I'll Never Stop Loving You
TTITLE5=Sweet Sixteen
TTITLE6=Baby I Still Want You
TTITLE7=Honey, Hush
TTITLE8=Crawdad Hole
TTITLE9=Oke-She-Moke-She-Bop
TTITLE10=Shake, Rattle And Roll
TTITLE11=Well All Right
TTITLE12=Hide And Seek
TTITLE13=Flip, Flop And Fly
TTITLE14=The Chicken And The Hawk
TTITLE15=Boogie Woogie Country Girl
TTITLE16=Corrine Corrina
TTITLE17=Midnight Special Train
TTITLE18=Red Sails In The Sunset
TTITLE19=Feeling Happy
TTITLE20=Blues In The Night
EXTD=
EXTT0=
EXTT1=
EXTT2=
EXTT3=
EXTT4=
EXTT5=
EXTT6=
EXTT7=
EXTT8=
EXTT9=
EXTT10=
EXTT11=
EXTT12=
EXTT13=
EXTT14=
EXTT15=
EXTT16=
EXTT17=
EXTT18=
EXTT19=
EXTT20=
PLAYORDER=
